<?xml version="1.0" encoding="utf-8"?>
<!-- Generator: Adobe Illustrator 18.1.1, SVG Export Plug-In . SVG Version: 6.00 Build 0)  -->
<svg version="1.1" id="Layer_1" xmlns="http://www.w3.org/2000/svg" xmlns:xlink="http://www.w3.org/1999/xlink" x="0px" y="0px"
	 viewBox="0 0 595.3 841.9" enable-background="new 0 0 595.3 841.9" xml:space="preserve">
<path opacity="0.8" enable-background="new    " d="M299.6,351.6V123.3c162.9,1,294.7,132.9,295.7,295.7H367.5
	C366.3,382.2,336.5,352.5,299.6,351.6z"/>
<path opacity="0.8" enable-background="new    " d="M295.7,351.6V123.3C132.9,124.3,1,256.2,0,419h227.9
	C229.2,382.2,258.9,352.6,295.7,351.6z"/>
<path opacity="0.8" enable-background="new    " d="M227.9,422.9H0c1,162.9,132.9,294.7,295.7,295.7V491.4
	C258.5,490.4,228.6,460.2,227.9,422.9z"/>
<path opacity="0.8" enable-background="new    " d="M299.6,491.4v227.2c162.9-1,294.7-132.9,295.7-295.7H367.5
	C366.8,460.2,336.8,490.4,299.6,491.4z"/>
<g>
	<path id="green" class="chart__segment engineering" fill="#63BF76" d="M287.8,131.8c-3.7-3.6-7.7-7-11.9-10.1l-36,49.7c1.7,1.3,3.3,2.6,4.8,4.1L287.8,131.8z"/>
	<path id="green" class="chart__segment courtyard" class="chart__segment" fill="#63BF76" d="M298.8,144.4c-3.1-4.2-6.5-8.1-10.2-11.8l-43.1,43.7c1.4,1.5,2.8,3,4,4.7L298.8,144.4z"/>
	<path id="green" class="chart__segment security" fill="#63BF76" d="M250.2,181.8c1.3,1.9,2.6,3.8,3.6,5.9l54.8-27.6c-2.7-5.2-5.7-10.1-9.1-14.8L250.2,181.8z"/>
	<path id="green" class="chart__segment technology" fill="#63BF76" d="M315.6,176.9l-58.5,18.5c0.6,1.9,1.1,3.9,1.5,5.9l60.6-9.7C318.3,186.5,317.1,181.6,315.6,176.9z"/>
	<path id="orange" class="chart__segment parking" fill="#F1B43D" d="M256.7,194.3l58.5-18.5c-1.7-5.1-3.7-10-6.1-14.7l-54.8,27.6C255.3,190.5,256,192.4,256.7,194.3z"/>
	<path id="orange" class="chart__segment planings" fill="#F1B43D" d="M226.8,164.3c1.9,0.7,3.8,1.5,5.6,2.4l27.6-54.8c-4.6-2.3-9.5-4.4-14.4-6.1L226.8,164.3z"/>
	<path id="orange" class="chart__segment status " fill="#F1B43D" d="M259.5,208.8h61.4c-0.1-5.5-0.6-10.9-1.5-16.2l-60.6,9.7C259.2,204.5,259.4,206.6,259.5,208.8z"/>
	<path id="green-btn" class="chart__segment density-on-the-floor" fill="#63BF76" d="M219.6,162.3c2.1,0.4,4.1,0.9,6.1,1.6l18.8-58.4c-5-1.6-10.2-2.9-15.5-3.8L219.6,162.3z"/>
	<path id="red" class="chart__segment ceilings" fill="#E12742" d="M275,121c-4.4-3.2-9.1-6.1-13.9-8.6l-27.6,54.8c1.9,1,3.8,2.2,5.6,3.5L275,121z"/>
	<path id="orange" class="chart__segment medicine" fill="#F1B43D" d="M184.8,253c-7.1-4.3-13.1-10.3-17.3-17.5L115,267c9.5,16.1,23,29.5,39.1,39L184.8,253z"/>
	<path id="orange" class="chart__segment pop-density" fill="#F1B43D" d="M228,101.4c-5.4-0.9-10.9-1.3-16.4-1.4v61.3c2.4,0.1,4.7,0.3,7,0.7L228,101.4z"/>
	<path id="green" class="chart__segment district" fill="#63BF76" d="M185.6,167.9c6.9-3.9,14.7-6.3,23.2-6.5V100c-19.3,0.2-37.5,5.4-53.2,14.4L185.6,167.9z"/>
	<path id="green" class="chart__segment gr-transportation" fill="#63BF76" d="M252.8,235.5c-4.2,7.1-10.1,13.1-17.2,17.4l30.6,53.2c16.4-9.7,30.1-23.4,39.7-39.9L252.8,235.5z"/>
	<path id="green" class="chart__segment auto" fill="#63BF76" d="M253.4,234.5l53.1,30.7c9-15.9,14.2-34.2,14.4-53.8h-61.3C259.4,219.9,257.2,227.7,253.4,234.5z"/>
	<path id="orange"class="chart__segment metro" fill="#F1B43D" d="M234.7,253.5c-6.9,3.9-14.7,6.3-23.2,6.5v61.3c19.5-0.2,37.9-5.5,53.7-14.6L234.7,253.5z"/>
	<path id="green" class="chart__segment area" fill="#63BF76" d="M167.3,186.3L114.6,155c-9.3,15.9-14.7,34.2-15,53.8h61.4C161.2,200.6,163.5,193,167.3,186.3z"/>
	<path id="green" class="chart__segment entertainment" fill="#63BF76" d="M155,306.6c15.9,9.1,34.2,14.5,53.8,14.7V260c-8.4-0.2-16.2-2.5-23-6.4L155,306.6z"/>
	<path id="orange" class="chart__segment location" fill="#F1B43D" d="M167.9,185.3c4.1-6.9,9.9-12.7,16.8-16.8L154.6,115c-16.2,9.4-29.8,22.9-39.4,39L167.9,185.3z"/>
	<path id="green" class="chart__segment trading" fill="#63BF76" d="M167,234.5c-3.8-6.8-6-14.6-6.1-23H99.5c0.1,19.9,5.5,38.5,14.8,54.6L167,234.5z"/>
	<text id="engineering" transform="matrix(1 0 0 1 302.5096 132.433)" fill="#63BF76" font-family="raleway" font-size="10">Инженерия</text>
	<text id="courtyard" transform="matrix(1 0 0 1 312.8096 144.7329)" fill="#63BF76" font-family="raleway" font-size="10">Двор</text>
	<text id="security" transform="matrix(1 0 0 1 322.8097 159.1768)" fill="#63BF76" font-family="raleway" font-size="10">Безопасность</text>
	<text id="parking" transform="matrix(1 0 0 1 328.0096 172.9129)" fill="#F1B43D" font-family="raleway" font-size="10">Парковка</text>
	<text id="technology" transform="matrix(1 0 0 1 332.0096 186.5204)" fill="#63BF76" font-family="raleway" font-size="10">Технология</text>
	<text id="status" transform="matrix(1 0 0 1 336.0096 200.7078)" fill="#F1B43D" font-family="raleway" font-size="10">Статус</text>
	<text id="auto" transform="matrix(1 0 0 1 332.0096 241.3618)" fill="#63BF76" font-family="raleway" font-size="10">Автомобиль</text>
	<text id="gr-transportation" transform="matrix(1 0 0 1 293.0096 301.3618)" fill="#63BF76" font-family="raleway" font-size="10">Наземный транспорт</text>
	<text id="metro" transform="matrix(1 0 0 1 235.6353 335.3618)" fill="#F1B43D" font-family="raleway" font-size="10">Метро</text>
	<text id="entertainment" transform="matrix(1 0 0 1 120.5096 335.3618)" fill="#63BF76" font-family="raleway" font-size="10">Развлечения</text>
	<text id="medicine" transform="matrix(1 0 0 1 72.8096 301.3618)" fill="#F1B43D" font-family="raleway" font-size="10">Медицина</text>
	<text id="trading" transform="matrix(1 0 0 1 47.9097 241.3618)" fill="#63BF76" font-family="raleway" font-size="10">Торговля</text>
	<text id="area" transform="matrix(1 0 0 1 52.5096 176.8618)" fill="#63BF76" font-family="raleway" font-size="10">Участок</text>
	<text id="location" transform="matrix(1 0 0 1 81.5096 121.6568)" fill="#F1B43D" font-family="raleway" font-size="10">Локация</text>
	<text id="district" transform="matrix(1 0 0 1 145.0096 92.6496)" fill="#63BF76" font-family="raleway" font-size="10">Район</text>
	<text id="pop-density" transform="matrix(1 0 0 1 224.2491 83.7261)" fill="#F1B43D" font-family="raleway" font-size="10">Плотность заселения</text>
	<text id="density-on-the-floor" transform="matrix(1 0 0 1 250.196 95.9261)" fill="#63BF76" font-family="raleway" font-size="10">Плотность на этаже</text>
	<text id="planings" transform="matrix(1 0 0 1 272.1563 107.6261)" fill="#F1B43D" font-family="raleway" font-size="10">Планировки</text>
	<text id="ceilings" transform="matrix(1 0 0 1 289.8222 120.3845)" fill="#E12742" font-family="raleway" font-size="10">Потолки</text>
</g>
<circle fill="#3D8C53" cx="297.9" cy="421.6" r="65.6"/>
<text transform="matrix(1 0 0 1 248.9307 405.4393)" fill="#FFFFFF" font-family="'Raleway-Bold'" font-size="12.7873">Общий рейтинг</text>
<text transform="matrix(1 0 0 1 257.709 445.1849)" fill="#FFFFFF" font-family="'Raleway-Bold'" font-size="40.2234">88%</text>

<g>
	<g>
		<path fill="#FFFFFF" d="M50.7,229c-0.4,0.5-0.9,1-1.4,1.5c-0.5,0.4-1.1,0.8-1.7,1s-1.2,0.4-1.8,0.5c-0.6,0.1-1.2,0-1.8-0.1
			l0.4-2.8c0.4,0.1,0.9,0.1,1.3,0.1c0.4,0,0.8-0.2,1.2-0.3c0.4-0.2,0.7-0.4,1-0.6c0.3-0.2,0.6-0.5,0.8-0.8c0.4-0.5,0.6-1,0.8-1.5
			s0.2-1.1,0.1-1.6c-0.1-0.5-0.2-1.1-0.5-1.6c-0.2-0.5-0.6-1-0.9-1.4l-3.9,4.9l-1.9-1.5l3.8-4.9c-0.4-0.2-0.9-0.4-1.4-0.5
			c-0.5-0.1-1-0.1-1.5,0c-0.5,0.1-1,0.2-1.5,0.5c-0.5,0.3-0.9,0.7-1.3,1.2c-0.2,0.3-0.4,0.6-0.6,0.9c-0.2,0.3-0.3,0.7-0.4,1.1
			s-0.1,0.8,0,1.2c0,0.4,0.2,0.8,0.4,1.3l-2.7,0.8c-0.5-1-0.6-2.1-0.5-3.3c0.1-1.2,0.7-2.4,1.6-3.6c0.8-1,1.6-1.7,2.6-2.2
			c0.9-0.5,1.9-0.7,2.9-0.8c1-0.1,1.9,0.1,2.9,0.4c0.9,0.3,1.8,0.7,2.5,1.3c0.8,0.6,1.4,1.3,1.9,2.2c0.5,0.9,0.9,1.8,1,2.8
			c0.2,1,0.2,2,0,3C51.9,227.2,51.4,228.1,50.7,229z"/>
		<path fill="#FFFFFF" d="M52.4,208.9l2-2.4l1.3,6.9l7.6,0.2l-2.1,2.5l-5.6-0.2l-0.5,0.6l3.3,2.8l-1.9,2.2l-8.6-7.4l1.9-2.2l3.4,2.9
			l0.4-0.5L52.4,208.9z"/>
		<path fill="#FFFFFF" d="M67.5,209.4c-0.6,0.7-1.3,1.2-2,1.5c-0.7,0.3-1.5,0.5-2.2,0.5c-0.7,0-1.5-0.1-2.2-0.4
			c-0.7-0.3-1.3-0.7-1.9-1.2c-0.6-0.5-1-1.2-1.4-1.8c-0.3-0.7-0.5-1.4-0.6-2.1c-0.1-0.7,0.1-1.5,0.3-2.3s0.7-1.5,1.3-2.2
			c0.6-0.7,1.3-1.2,2-1.5c0.7-0.3,1.5-0.5,2.2-0.5c0.7,0,1.5,0.1,2.2,0.4c0.7,0.3,1.4,0.7,1.9,1.2c0.6,0.5,1,1.1,1.4,1.8
			s0.5,1.4,0.6,2.1c0.1,0.7,0,1.5-0.3,2.2C68.5,208,68.1,208.8,67.5,209.4z M61.1,207.6c0.4,0.3,0.8,0.6,1.2,0.8
			c0.4,0.2,0.8,0.3,1.2,0.3c0.4,0,0.8-0.1,1.2-0.2c0.4-0.2,0.7-0.4,1-0.7c0.3-0.3,0.5-0.7,0.6-1c0.1-0.4,0.2-0.8,0.1-1.2
			c0-0.4-0.2-0.8-0.4-1.2c-0.2-0.4-0.5-0.8-0.9-1.1c-0.4-0.3-0.7-0.6-1.2-0.8c-0.4-0.2-0.8-0.3-1.2-0.3s-0.8,0.1-1.2,0.2
			c-0.4,0.2-0.7,0.4-1,0.7c-0.3,0.3-0.5,0.7-0.6,1c-0.1,0.4-0.2,0.8-0.1,1.2c0,0.4,0.2,0.8,0.4,1.2
			C60.5,206.9,60.8,207.3,61.1,207.6z"/>
		<path fill="#FFFFFF" d="M69.8,202.9c0.3-0.3,0.5-0.6,0.5-0.9c0.1-0.3,0.1-0.6-0.1-1c-0.1-0.4-0.4-0.9-0.8-1.5
			c-0.4-0.6-0.9-1.3-1.6-2.2l-2.2-2.8l5.6-5.6l8.1,8l-2,2l-6.3-6.3l-1.8,1.8l1.1,1.4c0.9,1.1,1.6,2.1,2.1,3c0.5,0.8,0.8,1.6,0.9,2.2
			s0.1,1.3-0.2,1.8c-0.2,0.6-0.6,1.1-1.2,1.7L69.8,202.9z"/>
		<path fill="#FFFFFF" d="M85.1,191.8c-0.7,0.6-1.4,1.1-2.2,1.3s-1.5,0.4-2.3,0.3c-0.7,0-1.5-0.2-2.1-0.6c-0.7-0.3-1.3-0.8-1.8-1.4
			c-0.5-0.6-1-1.2-1.2-1.9c-0.3-0.7-0.4-1.4-0.4-2.2s0.2-1.5,0.5-2.2c0.3-0.7,0.8-1.4,1.5-2c0.7-0.6,1.4-1.1,2.1-1.3
			c0.8-0.3,1.5-0.4,2.2-0.3s1.5,0.2,2.1,0.6s1.3,0.8,1.8,1.4c0.5,0.6,0.9,1.2,1.2,1.9c0.3,0.7,0.4,1.4,0.4,2.2s-0.2,1.5-0.5,2.2
			C86.3,190.4,85.8,191.1,85.1,191.8z M78.9,189.5c0.3,0.4,0.7,0.7,1.1,0.9c0.4,0.2,0.8,0.3,1.2,0.4c0.4,0,0.8,0,1.2-0.1
			c0.4-0.1,0.7-0.3,1-0.6s0.5-0.6,0.7-1c0.2-0.4,0.2-0.8,0.2-1.2c0-0.4-0.1-0.8-0.3-1.2c-0.2-0.4-0.4-0.8-0.8-1.2
			c-0.3-0.4-0.7-0.6-1.1-0.8c-0.4-0.2-0.8-0.3-1.2-0.4c-0.4,0-0.8,0-1.2,0.1c-0.4,0.1-0.7,0.3-1,0.6s-0.5,0.6-0.7,1
			c-0.1,0.4-0.2,0.8-0.2,1.2c0,0.4,0.1,0.8,0.3,1.2C78.4,188.7,78.6,189.1,78.9,189.5z"/>
		<path fill="#FFFFFF" d="M90.7,174.6l-3.6,3.1l5.9,6.8l-2.2,1.9l-7.4-8.6l5.8-5L90.7,174.6z"/>
		<path fill="#FFFFFF" d="M97.4,175.3l-0.3-9l1.7-1.3l7.1,8.9l-2.3,1.8l-4.4-5.5l0.2,8.8l-1.7,1.4l-7.1-8.9l2.3-1.8L97.4,175.3z"/>
		<path fill="#FFFFFF" d="M106.9,167.7c-0.7,0.2-1.4,0.2-2,0c-0.6-0.2-1.2-0.6-1.7-1.3c-0.3-0.5-0.6-0.9-0.7-1.4
			c-0.1-0.5-0.1-1,0-1.5c0.1-0.5,0.3-0.9,0.6-1.4c0.3-0.4,0.7-0.8,1.1-1.2l4.2-3.1l6.8,9.2l-2.3,1.7l-2.3-3.1l-1.2,0.9l0.4,4.5
			l-2.5,1.9L106.9,167.7z M109.2,163.8l-1.8-2.4l-1.6,1.2c-0.3,0.2-0.5,0.5-0.6,0.9c-0.1,0.4,0,0.8,0.3,1.2c0.3,0.4,0.6,0.6,1,0.6
			c0.4,0,0.7,0,1.1-0.3L109.2,163.8z"/>
		<path fill="#FFFFFF" d="M487.2,161.7l1,0.7l7.5-2.3l2.7,2l-8.9,2.7l0.1,10l-2.7-2l-0.1-8.1l-1.2-0.9l-3.8,5.1l-2.4-1.8l9.2-12.4
			l2.4,1.8L487.2,161.7z"/>
		<path fill="#FFFFFF" d="M493.9,178.7c-0.7-0.6-1.3-1.2-1.6-1.9s-0.6-1.4-0.6-2.2c-0.1-0.7,0-1.5,0.3-2.2c0.2-0.7,0.6-1.4,1.1-2
			c0.5-0.6,1.1-1.1,1.7-1.5c0.7-0.4,1.4-0.6,2.1-0.7c0.7-0.1,1.5,0,2.3,0.2c0.8,0.2,1.5,0.6,2.2,1.2c0.7,0.6,1.3,1.2,1.6,1.9
			s0.6,1.4,0.6,2.2c0.1,0.7,0,1.5-0.3,2.2c-0.2,0.7-0.6,1.4-1.1,2c-0.5,0.6-1.1,1.1-1.7,1.5c-0.7,0.4-1.4,0.6-2.1,0.7
			s-1.5,0-2.3-0.2C495.4,179.6,494.6,179.2,493.9,178.7z M495.3,172.2c-0.3,0.4-0.5,0.8-0.7,1.2s-0.2,0.8-0.2,1.2
			c0,0.4,0.1,0.8,0.3,1.1c0.2,0.4,0.4,0.7,0.8,0.9c0.3,0.3,0.7,0.4,1.1,0.5s0.8,0.1,1.2,0s0.8-0.2,1.2-0.4c0.4-0.2,0.7-0.5,1.1-0.9
			c0.3-0.4,0.5-0.8,0.7-1.2c0.1-0.4,0.2-0.8,0.2-1.2c0-0.4-0.1-0.8-0.3-1.1c-0.2-0.4-0.4-0.7-0.8-0.9c-0.3-0.3-0.7-0.4-1.1-0.5
			c-0.4-0.1-0.8-0.1-1.2,0s-0.8,0.2-1.2,0.4C496,171.5,495.6,171.8,495.3,172.2z"/>
		<path fill="#FFFFFF" d="M508.4,183.7l6.5-2.3l2.2,2l-7.6,8.5l-2.1-1.8l4.5-5.1l-5.6,1.9l-1-0.9l1.3-5.7l-4.5,5.1l-2.1-1.8l7.6-8.5
			l2.2,2L508.4,183.7z"/>
		<path fill="#FFFFFF" d="M525.1,191c0.6,0.7,1,1.4,1.3,2.2c0.3,0.7,0.4,1.4,0.4,2.1c0,0.7-0.2,1.4-0.5,2c-0.3,0.6-0.7,1.2-1.3,1.8
			c-1.1,1.1-2.4,1.7-3.8,1.8c-1.4,0-2.8-0.5-4.3-1.6l-3.2,3.2l-2.1-2l3.1-3.2c-1.2-1.5-1.8-2.9-1.8-4.3c0-1.4,0.6-2.7,1.7-3.9
			c0.5-0.6,1.1-1,1.8-1.3c0.6-0.3,1.3-0.5,2-0.5s1.4,0.1,2.2,0.4s1.5,0.7,2.2,1.3l3.1-3.1l2.1,2L525.1,191z M521.4,190.6
			c-0.8-0.6-1.6-0.8-2.3-0.8s-1.4,0.5-2.1,1.1c-0.7,0.7-1,1.4-1.1,2.1c-0.1,0.7,0.2,1.5,0.8,2.4L521.4,190.6z M518.7,197.5
			c0.8,0.6,1.6,0.8,2.3,0.7c0.7-0.1,1.4-0.5,2.1-1.2c0.7-0.7,1-1.4,1.1-2.1c0.1-0.7-0.2-1.5-0.7-2.3L518.7,197.5z"/>
		<path fill="#FFFFFF" d="M525.7,208.4c-0.6-0.7-1.1-1.4-1.4-2.2c-0.3-0.8-0.4-1.5-0.3-2.3c0-0.7,0.2-1.5,0.6-2.1
			c0.3-0.7,0.8-1.3,1.4-1.8c0.6-0.5,1.2-1,1.9-1.2s1.4-0.4,2.2-0.4c0.7,0,1.5,0.2,2.2,0.5c0.7,0.3,1.4,0.8,2,1.5
			c0.6,0.7,1.1,1.4,1.3,2.1c0.3,0.8,0.4,1.5,0.3,2.2c0,0.7-0.2,1.5-0.6,2.1s-0.8,1.3-1.4,1.8c-0.6,0.5-1.2,0.9-1.9,1.2
			s-1.4,0.4-2.2,0.4s-1.5-0.2-2.2-0.5S526.4,209.1,525.7,208.4z M528,202.2c-0.4,0.3-0.7,0.7-0.9,1.1s-0.3,0.8-0.4,1.2
			c0,0.4,0,0.8,0.1,1.2c0.1,0.4,0.3,0.7,0.6,1s0.6,0.5,1,0.7c0.4,0.2,0.8,0.2,1.2,0.2c0.4,0,0.8-0.1,1.2-0.3
			c0.4-0.2,0.8-0.4,1.2-0.8c0.4-0.3,0.6-0.7,0.8-1.1c0.2-0.4,0.3-0.8,0.4-1.2c0-0.4,0-0.8-0.1-1.2c-0.1-0.4-0.3-0.7-0.6-1
			c-0.3-0.3-0.6-0.5-1-0.7c-0.4-0.1-0.8-0.2-1.2-0.2c-0.4,0-0.8,0.1-1.2,0.3C528.8,201.7,528.4,201.9,528,202.2z"/>
		<path fill="#FFFFFF" d="M535.4,219.3c-0.6-0.7-0.9-1.4-1.1-2.2c-0.1-0.8-0.1-1.5,0.2-2.2l-5,4.3l-1.9-2.2l12.2-10.4l1.6,1.9
			l-1.5,1.3c0.8-0.1,1.5,0,2.3,0.2c0.7,0.3,1.4,0.7,1.9,1.4c0.5,0.6,0.8,1.2,1,1.9s0.2,1.4,0.1,2.1c-0.1,0.7-0.3,1.4-0.7,2.1
			c-0.4,0.7-0.9,1.3-1.5,1.8c-0.6,0.5-1.3,0.9-2,1.2c-0.7,0.3-1.4,0.4-2.1,0.4s-1.4-0.1-2-0.4C536.4,220.3,535.9,219.9,535.4,219.3z
			 M536.7,217c0.3,0.3,0.6,0.6,1,0.7c0.4,0.2,0.8,0.2,1.2,0.2s0.8-0.1,1.2-0.3s0.8-0.4,1.1-0.7c0.4-0.3,0.6-0.7,0.9-1
			c0.2-0.4,0.3-0.8,0.4-1.2s0-0.8-0.1-1.2c-0.1-0.4-0.3-0.8-0.6-1.1c-0.2-0.2-0.4-0.4-0.7-0.6s-0.5-0.3-0.8-0.3
			c-0.3-0.1-0.6-0.1-0.9-0.1c-0.3,0-0.6,0.1-0.9,0.2l-2,1.7c-0.3,0.6-0.5,1.3-0.5,2C536.1,215.9,536.3,216.5,536.7,217z"/>
		<path fill="#FFFFFF" d="M543,228.3l-1.8-2.3l6.9-5.5l-2.2-2.8l2-1.6l6.2,7.8l-2,1.6l-2.2-2.8L543,228.3z"/>
	</g>
</g>
<g>
	<path fill="#FFFFFF" d="M15.4,569l13.1,1.8l1.1,2L16.1,580l-1.4-2.6l9.2-5l-12.9-1.8l-1.1-2.1l13.5-7.2l1.4,2.6L15.4,569z"/>
	<path fill="#FFFFFF" d="M25.4,581.8l2.3,3.8l3.7-2.2l1.5,2.5l-9.7,5.8l-1.5-2.5l3.9-2.3l-2.3-3.8l-3.9,2.3l-1.5-2.5l9.7-5.8
		l1.5,2.5L25.4,581.8z"/>
	<path fill="#FFFFFF" d="M38.6,594.7c0.4,0.8,0.7,1.6,0.8,2.4c0.1,0.8,0.1,1.5-0.1,2.1c-0.2,0.7-0.4,1.3-0.9,1.9
		c-0.4,0.6-0.9,1.1-1.6,1.5c-1.3,0.9-2.7,1.2-4,0.9c-1.4-0.3-2.6-1.1-3.8-2.4l-3.7,2.5l-1.6-2.4l3.7-2.5c-0.9-1.7-1.1-3.2-0.8-4.5
		c0.3-1.4,1.1-2.5,2.5-3.4c0.6-0.4,1.3-0.7,2-0.9c0.7-0.2,1.4-0.2,2.1,0c0.7,0.1,1.4,0.4,2,0.8s1.3,1,1.9,1.7l3.6-2.4l1.6,2.4
		L38.6,594.7z M35,593.6c-0.7-0.7-1.4-1.1-2.1-1.2s-1.5,0.1-2.3,0.7c-0.8,0.5-1.3,1.1-1.5,1.8c-0.2,0.7-0.1,1.5,0.3,2.5L35,593.6z
		 M30.9,599.7c0.7,0.7,1.4,1.1,2.1,1.1c0.7,0.1,1.5-0.2,2.3-0.7c0.8-0.5,1.3-1.1,1.5-1.8c0.2-0.7,0.1-1.5-0.2-2.4L30.9,599.7z"/>
	<path fill="#FFFFFF" d="M37.4,613.2c-0.5-0.7-0.8-1.5-0.9-2.2s0.1-1.5,0.4-2.2l-5.3,3.9l-1.7-2.3l12.8-9.4l1.5,2l-1.6,1.1
		c0.8-0.1,1.5,0.1,2.2,0.4c0.7,0.3,1.3,0.8,1.8,1.5c0.4,0.6,0.7,1.3,0.9,2c0.1,0.7,0.1,1.4,0,2.1s-0.4,1.3-0.8,2
		c-0.4,0.6-0.9,1.2-1.6,1.6c-0.7,0.5-1.4,0.8-2.1,1.1c-0.7,0.2-1.4,0.3-2.1,0.3c-0.7,0-1.3-0.2-1.9-0.5
		C38.3,614.2,37.8,613.7,37.4,613.2z M38.8,610.9c0.3,0.3,0.6,0.6,0.9,0.8c0.4,0.2,0.8,0.3,1.2,0.3c0.4,0,0.8,0,1.2-0.2
		c0.4-0.1,0.8-0.3,1.2-0.6c0.4-0.3,0.7-0.6,0.9-1c0.2-0.4,0.4-0.8,0.5-1.2c0.1-0.4,0.1-0.8,0-1.2c-0.1-0.4-0.3-0.8-0.5-1.2
		c-0.2-0.2-0.4-0.4-0.6-0.6c-0.2-0.2-0.5-0.3-0.8-0.4c-0.3-0.1-0.6-0.2-0.9-0.2c-0.3,0-0.6,0-0.9,0.1l-2.1,1.6
		c-0.4,0.6-0.6,1.2-0.6,1.9C38.3,609.8,38.4,610.4,38.8,610.9z"/>
	<path fill="#FFFFFF" d="M43.6,621.4c-0.3-0.4-0.6-0.9-0.7-1.4s-0.2-1-0.2-1.4s0.2-0.9,0.4-1.3c0.2-0.4,0.5-0.8,0.9-1.1
		c0.4-0.3,0.9-0.5,1.4-0.6c0.5-0.1,1-0.1,1.5,0.1s1,0.4,1.5,0.7c0.5,0.3,1,0.8,1.4,1.3c0.3,0.4,0.6,0.8,0.8,1.2
		c0.2,0.4,0.4,0.8,0.5,1.2l0.5-0.4c0.6-0.5,0.9-1,1-1.6c0.1-0.6-0.2-1.2-0.7-1.8c-0.4-0.5-0.8-0.9-1.4-1.2c-0.5-0.3-1.1-0.6-1.8-0.8
		l0.9-1.8c1.7,0.5,3,1.5,4.1,2.8c1,1.3,1.5,2.5,1.4,3.7c-0.1,1.2-0.7,2.3-1.9,3.2l-2.7,2.2c-0.2,0.2-0.4,0.4-0.4,0.5
		c0,0.2,0,0.3,0.2,0.5l-1.9,1.5c-0.4-0.3-0.7-0.6-0.9-0.9c-0.3-0.4-0.5-0.8-0.5-1.2c0-0.4,0.1-0.7,0.4-1l0.4-0.4
		c-0.8,0-1.6-0.1-2.3-0.5C44.8,622.5,44.2,622,43.6,621.4z M45.8,620.7c0.3,0.4,0.7,0.7,1.1,0.9c0.4,0.2,0.8,0.4,1.2,0.4
		c0.4,0.1,0.7,0,0.9-0.1l1-0.8c-0.1-0.4-0.3-0.7-0.5-1.1c-0.2-0.4-0.4-0.7-0.6-1c-0.5-0.6-1-1-1.5-1.1c-0.6-0.2-1-0.1-1.4,0.2
		c-0.4,0.3-0.6,0.7-0.6,1.2C45.3,619.8,45.5,620.3,45.8,620.7z"/>
	<path fill="#FFFFFF" d="M53.7,624.6c0.6-0.5,1.3-0.9,2-1.2c0.7-0.3,1.4-0.4,2.2-0.3c0.7,0,1.5,0.2,2.2,0.6c0.7,0.3,1.4,0.9,2,1.6
		c0.8,0.9,1.3,1.9,1.5,2.9c0.2,1,0.1,2-0.3,2.8l-2.5-1.6c0.2-0.5,0.2-0.9,0.1-1.4c-0.1-0.4-0.3-0.9-0.6-1.2
		c-0.3-0.3-0.6-0.6-0.9-0.7c-0.4-0.2-0.7-0.3-1.1-0.3c-0.4,0-0.8,0.1-1.2,0.2c-0.4,0.2-0.8,0.4-1.2,0.7c-0.4,0.3-0.7,0.7-0.9,1.1
		c-0.2,0.4-0.3,0.8-0.4,1.2c-0.1,0.4,0,0.8,0.1,1.2c0.1,0.4,0.3,0.7,0.6,1c0.3,0.4,0.7,0.7,1.2,0.8c0.5,0.2,0.9,0.2,1.3,0.1l1.2,2.7
		c-0.9,0.3-1.9,0.2-2.8-0.1s-1.9-1-2.7-1.9c-0.6-0.7-1-1.4-1.3-2.2s-0.3-1.5-0.3-2.3c0.1-0.7,0.3-1.5,0.6-2.1
		C52.6,625.7,53.1,625.1,53.7,624.6z"/>
	<path fill="#FFFFFF" d="M61.8,642.2l-1.9-2.1l6.4-6l-2.4-2.6l1.8-1.7l6.7,7.3l-1.8,1.7l-2.4-2.6L61.8,642.2z"/>
	<path fill="#FFFFFF" d="M70.2,651.2c-0.6-0.6-1-1.3-1.2-2.1s-0.2-1.5,0-2.2l-4.6,4.6l-2-2l11.2-11.2l1.8,1.8l-1.4,1.4
		c0.8-0.2,1.5-0.2,2.2,0c0.7,0.2,1.4,0.6,2,1.2c0.5,0.5,0.9,1.1,1.2,1.8c0.2,0.7,0.3,1.4,0.3,2.1s-0.2,1.4-0.5,2.1s-0.8,1.3-1.3,1.9
		c-0.6,0.6-1.2,1-1.9,1.4s-1.4,0.5-2,0.6c-0.7,0.1-1.3,0-2-0.2S70.7,651.7,70.2,651.2z M71.3,648.8c0.3,0.3,0.7,0.5,1,0.6
		c0.4,0.1,0.8,0.2,1.2,0.1c0.4,0,0.8-0.2,1.2-0.4c0.4-0.2,0.8-0.4,1.1-0.8c0.3-0.3,0.6-0.7,0.8-1.1c0.2-0.4,0.3-0.8,0.3-1.2
		s-0.1-0.8-0.2-1.2c-0.1-0.4-0.4-0.7-0.7-1.1c-0.2-0.2-0.4-0.4-0.7-0.5s-0.6-0.2-0.8-0.3s-0.6-0.1-0.9,0s-0.6,0.1-0.8,0.2l-1.9,1.9
		c-0.3,0.6-0.4,1.3-0.3,2C70.6,647.8,70.8,648.3,71.3,648.8z"/>
	<path fill="#FFFFFF" d="M74.1,657.5c0.1,0.3,0.2,0.5,0.3,0.7c0.1,0.2,0.3,0.4,0.4,0.5c0.3,0.2,0.6,0.3,1,0.2c0.4-0.1,1-0.4,1.8-0.9
		l4.4-11.3l2.2,2l-3.7,8.5l8-4.6l2,1.8l-11.9,6.4c-1.2,0.6-2.1,0.9-3,0.9c-0.8,0-1.6-0.4-2.2-1c-0.2-0.2-0.4-0.4-0.6-0.7
		c-0.2-0.2-0.3-0.5-0.3-0.7L74.1,657.5z"/>
	<path fill="#FFFFFF" d="M96.9,660l2.4,2l-6.9,1.3l-0.2,7.5l-2.5-2.1l0.2-5.6l-0.6-0.5l-2.8,3.3l-2.2-1.9l7.3-8.6l2.2,1.9l-2.9,3.4
		l0.5,0.4L96.9,660z"/>
	<path fill="#FFFFFF" d="M97.6,675.2l-2.2-1.8l5.5-6.9l-2.8-2.2l1.6-2l7.7,6.2l-1.6,2l-2.7-2.2L97.6,675.2z"/>
	<path fill="#FFFFFF" d="M101,680.4c0.1,0.3,0.2,0.5,0.4,0.7s0.3,0.3,0.5,0.4c0.3,0.2,0.6,0.3,1.1,0.1s1-0.5,1.7-1.1l3.1-11.7
		l2.4,1.8l-2.8,8.9l7.4-5.4l2.2,1.6l-11.2,7.6c-1.1,0.7-2,1.1-2.8,1.2c-0.8,0.1-1.6-0.2-2.3-0.7c-0.3-0.2-0.5-0.4-0.7-0.6
		s-0.3-0.4-0.4-0.7L101,680.4z"/>
	<path fill="#FFFFFF" d="M117.3,689.8c-0.7-0.5-1.3-1.1-1.6-1.8c-0.3-0.7-0.5-1.4-0.4-2.2l-3.7,5.4l-2.4-1.6l8.9-13.1l2.1,1.4
		l-1.1,1.6c0.7-0.3,1.5-0.4,2.2-0.4c0.8,0.1,1.5,0.3,2.2,0.8c0.6,0.4,1.1,1,1.5,1.6c0.4,0.6,0.6,1.3,0.7,2c0.1,0.7,0,1.4-0.1,2.1
		c-0.2,0.7-0.5,1.4-0.9,2.1c-0.5,0.7-1,1.2-1.6,1.7c-0.6,0.5-1.2,0.8-1.9,1c-0.7,0.2-1.3,0.2-2,0.2
		C118.5,690.5,117.9,690.2,117.3,689.8z M117.8,687.2c0.4,0.2,0.7,0.4,1.1,0.4c0.4,0.1,0.8,0,1.2-0.1c0.4-0.1,0.8-0.3,1.1-0.6
		c0.4-0.3,0.7-0.6,0.9-0.9c0.3-0.4,0.4-0.8,0.5-1.2s0.1-0.8,0.1-1.3c-0.1-0.4-0.2-0.8-0.4-1.1c-0.2-0.4-0.5-0.7-0.9-0.9
		c-0.2-0.2-0.5-0.3-0.8-0.4c-0.3-0.1-0.6-0.1-0.9-0.1s-0.6,0-0.9,0.1c-0.3,0.1-0.6,0.2-0.8,0.4l-1.5,2.2c-0.1,0.7-0.1,1.3,0.1,2
		C117,686.4,117.3,686.9,117.8,687.2z"/>
	<path fill="#FFFFFF" d="M125.9,695.5c-0.5-0.3-0.8-0.6-1.2-1s-0.5-0.8-0.6-1.3c-0.1-0.5-0.2-0.9-0.1-1.4c0.1-0.5,0.2-0.9,0.5-1.4
		c0.3-0.5,0.6-0.8,1.1-1.1c0.4-0.3,0.9-0.4,1.4-0.5c0.5,0,1.1,0,1.7,0.2c0.6,0.2,1.2,0.4,1.8,0.8c0.4,0.3,0.8,0.6,1.2,0.9
		c0.4,0.3,0.7,0.7,0.9,1l0.3-0.5c0.4-0.6,0.5-1.2,0.4-1.8c-0.1-0.6-0.6-1.1-1.3-1.5c-0.5-0.3-1.1-0.5-1.7-0.7
		c-0.6-0.1-1.3-0.2-2-0.1l0.2-2c1.7-0.1,3.3,0.4,4.7,1.3c1.4,0.9,2.2,1.9,2.6,3c0.3,1.2,0.1,2.4-0.7,3.6l-1.9,3
		c-0.2,0.3-0.2,0.5-0.2,0.6c0,0.2,0.1,0.3,0.3,0.5l-1.3,2.1c-0.5-0.2-0.9-0.4-1.2-0.5c-0.5-0.3-0.8-0.6-0.9-1
		c-0.1-0.4-0.1-0.7,0-1.1l0.3-0.6c-0.8,0.3-1.6,0.4-2.4,0.3C127.4,696.1,126.6,695.9,125.9,695.5z M127.7,694.1
		c0.4,0.3,0.9,0.4,1.3,0.5c0.5,0.1,0.9,0.1,1.2,0c0.4,0,0.7-0.2,0.8-0.4l0.7-1.1c-0.2-0.3-0.5-0.6-0.8-0.9c-0.3-0.3-0.6-0.5-0.9-0.7
		c-0.6-0.4-1.2-0.6-1.8-0.5c-0.6,0-1,0.3-1.3,0.7c-0.3,0.4-0.3,0.9-0.2,1.3C127,693.4,127.3,693.8,127.7,694.1z"/>
	<path fill="#FFFFFF" d="M483.8,670.3l-4,2.8l7.4,10.3l-2.4,1.7l-7.4-10.3l-4,2.8l-1.5-2.1l10.3-7.4L483.8,670.3z"/>
	<path fill="#FFFFFF" d="M496.3,676.9c-0.7,0.5-1.4,0.9-2.2,1s-1.5,0-2.2-0.3l4,5.2l-2.3,1.8l-9.7-12.6l2-1.5l1.2,1.5
		c-0.1-0.8,0-1.5,0.3-2.2c0.3-0.7,0.8-1.3,1.5-1.8c0.6-0.5,1.3-0.8,2-0.9s1.4-0.2,2.1,0c0.7,0.1,1.4,0.4,2,0.8
		c0.6,0.4,1.2,0.9,1.7,1.5c0.5,0.6,0.9,1.3,1.1,2c0.2,0.7,0.4,1.4,0.3,2.1c0,0.7-0.2,1.3-0.5,1.9
		C497.3,675.9,496.9,676.5,496.3,676.9z M494.1,675.5c0.3-0.3,0.6-0.6,0.8-1c0.2-0.4,0.3-0.8,0.3-1.2c0-0.4-0.1-0.8-0.2-1.2
		c-0.1-0.4-0.3-0.8-0.6-1.2c-0.3-0.4-0.6-0.7-1-0.9s-0.8-0.4-1.2-0.4c-0.4-0.1-0.8-0.1-1.2,0c-0.4,0.1-0.8,0.3-1.1,0.6
		c-0.2,0.2-0.4,0.4-0.6,0.6c-0.2,0.3-0.3,0.5-0.4,0.8c-0.1,0.3-0.1,0.6-0.2,0.9c0,0.3,0,0.6,0.1,0.9l1.6,2.1
		c0.6,0.4,1.2,0.5,1.9,0.5C493,676.1,493.6,675.9,494.1,675.5z"/>
	<path fill="#FFFFFF" d="M504.4,670.4c-0.4,0.4-0.9,0.6-1.3,0.8c-0.5,0.2-1,0.2-1.4,0.2s-0.9-0.1-1.3-0.3c-0.4-0.2-0.8-0.5-1.1-0.9
		c-0.3-0.4-0.6-0.9-0.7-1.4c-0.1-0.5-0.1-1,0-1.5c0.1-0.5,0.3-1,0.7-1.5c0.3-0.5,0.8-1,1.3-1.5c0.4-0.3,0.8-0.6,1.2-0.9
		c0.4-0.2,0.8-0.4,1.2-0.5l-0.4-0.5c-0.5-0.6-1-0.9-1.6-0.9s-1.2,0.2-1.8,0.8c-0.5,0.4-0.8,0.8-1.1,1.4s-0.5,1.2-0.7,1.9l-1.9-0.8
		c0.5-1.7,1.4-3,2.7-4.1c1.2-1,2.5-1.5,3.7-1.5c1.2,0,2.3,0.6,3.3,1.8l2.3,2.7c0.2,0.2,0.4,0.4,0.5,0.4c0.2,0,0.3,0,0.5-0.2l1.6,1.9
		c-0.3,0.4-0.6,0.7-0.9,0.9c-0.4,0.4-0.8,0.5-1.2,0.5c-0.4,0-0.7-0.1-1-0.4l-0.5-0.4c0,0.8-0.1,1.6-0.4,2.3S505,669.9,504.4,670.4z
		 M503.6,668.3c0.4-0.3,0.7-0.7,0.9-1.1c0.2-0.4,0.3-0.8,0.3-1.2c0.1-0.4,0-0.7-0.2-0.9l-0.8-1c-0.3,0.1-0.7,0.3-1.1,0.5
		s-0.7,0.4-1,0.7c-0.6,0.5-0.9,1-1.1,1.6c-0.1,0.6-0.1,1,0.3,1.4c0.3,0.4,0.7,0.6,1.2,0.6C502.8,668.8,503.2,668.6,503.6,668.3z"/>
	<path fill="#FFFFFF" d="M509,656.8l3.3-3l-2.9-3.2l2.1-1.9l7.6,8.3l-2.1,1.9l-3.1-3.4l-3.3,3l3.1,3.4l-2.1,1.9l-7.6-8.3l2.1-1.9
		L509,656.8z"/>
	<path fill="#FFFFFF" d="M516.9,651.5c-0.6-0.6-1-1.2-1.3-1.9s-0.5-1.4-0.5-2.2c0-0.7,0.1-1.5,0.4-2.2c0.3-0.7,0.8-1.4,1.4-2.1
		c0.9-0.9,1.8-1.4,2.8-1.6c1-0.2,1.9-0.2,2.9,0.1l-1.4,2.6c-0.5-0.1-0.9-0.1-1.4,0s-0.8,0.4-1.2,0.7c-0.3,0.3-0.5,0.6-0.7,1
		c-0.1,0.4-0.2,0.8-0.2,1.1c0,0.4,0.1,0.8,0.3,1.2c0.2,0.4,0.5,0.8,0.8,1.1c0.4,0.4,0.7,0.6,1.1,0.8c0.4,0.2,0.8,0.3,1.2,0.3
		c0.4,0,0.8,0,1.2-0.2c0.4-0.1,0.7-0.3,1-0.6c0.4-0.4,0.6-0.8,0.7-1.3c0.1-0.5,0.1-0.9,0-1.3l2.6-1.4c0.3,0.9,0.4,1.8,0.1,2.8
		c-0.3,1-0.8,2-1.7,2.8c-0.7,0.6-1.4,1.1-2.1,1.4c-0.7,0.3-1.5,0.4-2.2,0.4s-1.5-0.2-2.2-0.5S517.4,652,516.9,651.5z"/>
	<path fill="#FFFFFF" d="M537,639l-2,2.1l-6.4-6l-2.8,3l6.4,6l-2,2.1l-8.2-7.7l6.8-7.2L537,639z"/>
	<path fill="#FFFFFF" d="M542.6,632.9c-0.6,0.7-1.3,1.2-2,1.6c-0.7,0.3-1.4,0.5-2.2,0.6c-0.7,0-1.5-0.1-2.2-0.3
		c-0.7-0.3-1.4-0.6-1.9-1.1c-0.6-0.5-1.1-1.1-1.4-1.8c-0.4-0.7-0.6-1.4-0.6-2.1s0-1.5,0.2-2.2c0.2-0.8,0.7-1.5,1.3-2.2
		c0.6-0.7,1.3-1.2,2-1.6c0.7-0.3,1.4-0.5,2.2-0.6c0.7,0,1.5,0.1,2.2,0.3c0.7,0.3,1.4,0.6,2,1.2c0.6,0.5,1.1,1.1,1.4,1.8
		c0.4,0.7,0.6,1.4,0.6,2.1c0.1,0.7,0,1.5-0.2,2.2C543.6,631.5,543.2,632.2,542.6,632.9z M536.3,631.3c0.4,0.3,0.8,0.6,1.2,0.7
		s0.8,0.2,1.2,0.2c0.4,0,0.8-0.1,1.1-0.3c0.4-0.2,0.7-0.4,0.9-0.7c0.3-0.3,0.5-0.7,0.6-1c0.1-0.4,0.1-0.8,0.1-1.2
		c-0.1-0.4-0.2-0.8-0.4-1.2c-0.2-0.4-0.5-0.7-0.9-1.1c-0.4-0.3-0.8-0.6-1.2-0.7c-0.4-0.2-0.8-0.2-1.2-0.2c-0.4,0-0.8,0.1-1.1,0.3
		c-0.4,0.2-0.7,0.4-0.9,0.7c-0.3,0.3-0.5,0.7-0.6,1s-0.1,0.8-0.1,1.2c0.1,0.4,0.2,0.8,0.4,1.2C535.6,630.7,535.9,631,536.3,631.3z"
		/>
	<path fill="#FFFFFF" d="M552.2,621.3c-0.6,0.7-1.2,1.2-1.9,1.5c-0.7,0.3-1.5,0.3-2.2,0.2l5.1,4.1l-1.8,2.3l-12.4-9.9l1.6-2l1.5,1.2
		c-0.3-0.7-0.3-1.5-0.2-2.2s0.4-1.5,1-2.1c0.5-0.6,1-1.1,1.7-1.4s1.3-0.5,2-0.5c0.7,0,1.4,0.1,2.1,0.3s1.4,0.6,2,1.1
		c0.6,0.5,1.2,1.1,1.6,1.7c0.4,0.6,0.7,1.3,0.8,2c0.1,0.7,0.1,1.3,0,2C552.9,620.1,552.6,620.7,552.2,621.3z M549.7,620.5
		c0.3-0.3,0.4-0.7,0.5-1.1s0.1-0.8,0-1.2s-0.2-0.8-0.5-1.2c-0.2-0.4-0.5-0.7-0.9-1c-0.4-0.3-0.8-0.5-1.2-0.6
		c-0.4-0.1-0.8-0.2-1.2-0.1s-0.8,0.1-1.2,0.3c-0.4,0.2-0.7,0.5-1,0.8c-0.2,0.2-0.3,0.5-0.4,0.7s-0.2,0.6-0.2,0.9
		c0,0.3,0,0.6,0.1,0.9c0.1,0.3,0.2,0.6,0.3,0.8l2.1,1.6c0.7,0.2,1.3,0.2,2,0.1C548.8,621.3,549.3,621,549.7,620.5z"/>
	<path fill="#FFFFFF" d="M559.3,611.5l-1.7,2.3l-7.1-5.2l-2.1,2.8l-2-1.5l5.9-8l2,1.5l-2.1,2.8L559.3,611.5z"/>
</g>
</svg>
