<?xml version="1.0" encoding="utf-8"?>
<!-- Generator: Adobe Illustrator 18.1.1, SVG Export Plug-In . SVG Version: 6.00 Build 0)  -->
<svg version="1.1" id="Layer_1" xmlns="http://www.w3.org/2000/svg" xmlns:xlink="http://www.w3.org/1999/xlink" x="0px" y="0px"
	 viewBox="0 0 595.3 841.9" enable-background="new 0 0 595.3 841.9" xml:space="preserve">
<path opacity="0.8" enable-background="new    " d="M299.6,351.6V123.3c162.9,1,294.7,132.9,295.7,295.7H367.5
	C366.3,382.2,336.5,352.5,299.6,351.6z M295.7,351.6V123.3C132.9,124.3,1,256.2,0,419h227.9C229.2,382.2,258.9,352.6,295.7,351.6z
	 M227.9,422.9H0c1,162.9,132.9,294.7,295.7,295.7V491.4C258.5,490.4,228.6,460.2,227.9,422.9z M299.6,491.4v227.2
	c162.9-1,294.7-132.9,295.7-295.7H367.5C366.8,460.2,336.8,490.4,299.6,491.4z"/>
<g>
	<path fill="#63BF76" d="M407.6,310c-5.2-5.1-10.9-9.9-16.9-14.3l-51,70.4c2.4,1.8,4.7,3.7,6.8,5.8L407.6,310z"/>
	<path fill="#63BF76" d="M423.2,327.8c-4.4-5.9-9.2-11.5-14.4-16.7l-61,61.9c2,2.1,4,4.2,5.7,6.7L423.2,327.8z"/>
	<path fill="#63BF76" d="M354.4,380.8c1.8,2.7,3.7,5.4,5.1,8.4l77.6-39.1c-3.8-7.4-8.1-14.3-12.9-21L354.4,380.8z"/>
	<path fill="#63BF76" d="M447,373.9l-82.9,26.2c0.8,2.7,1.6,5.5,2.1,8.4l85.8-13.7C450.8,387.4,449.1,380.5,447,373.9z"/>
	<path fill="#F1B43D" d="M363.6,398.5l82.9-26.2c-2.4-7.2-5.2-14.2-8.6-20.8l-77.6,39.1C361.6,393.1,362.6,395.8,363.6,398.5z"/>
	<path fill="#F1B43D" d="M321.2,356c2.7,1,5.4,2.1,7.9,3.4l39.1-77.6c-6.5-3.3-13.5-6.2-20.4-8.6L321.2,356z"/>
	<path fill="#F1B43D" d="M367.5,419h87c-0.1-7.8-0.8-15.4-2.1-22.9l-85.8,13.7C367.1,412.9,367.4,415.9,367.5,419z"/>
	<path fill="#63BF76" d="M311,353.2c3,0.6,5.8,1.3,8.6,2.3l26.6-82.7c-7.1-2.3-14.4-4.1-22-5.4L311,353.2z"/>
	<path fill="#E12742" d="M389.5,294.7c-6.2-4.5-12.9-8.6-19.7-12.2l-39.1,77.6c2.7,1.4,5.4,3.1,7.9,5L389.5,294.7z"/>
	<path fill="#F1B43D" d="M261.7,481.6c-10.1-6.1-18.6-14.6-24.5-24.8l-74.4,44.6c13.5,22.8,32.6,41.8,55.4,55.2L261.7,481.6z"/>
	<path fill="#F1B43D" d="M322.9,266.9c-7.6-1.3-15.4-1.8-23.2-2v86.8c3.4,0.1,6.7,0.4,9.9,1L322.9,266.9z"/>
	<path fill="#63BF76" d="M262.9,361.1c9.8-5.5,20.8-8.9,32.9-9.2v-87c-27.3,0.3-53.1,7.6-75.3,20.4L262.9,361.1z"/>
	<path fill="#63BF76" d="M358,456.8c-5.9,10.1-14.3,18.6-24.4,24.6l43.3,75.3c23.2-13.7,42.6-33.1,56.2-56.5L358,456.8z"/>
	<path fill="#63BF76" d="M358.9,455.4l75.2,43.5c12.7-22.5,20.1-48.4,20.4-76.2h-86.8C367.4,434.8,364.3,445.8,358.9,455.4z"/>
	<path fill="#F1B43D" d="M332.4,482.3c-9.8,5.5-20.8,8.9-32.9,9.2v86.8c27.6-0.3,53.7-7.8,76.1-20.7L332.4,482.3z"/>
	<path fill="#63BF76" d="M237,387.2l-74.6-44.3c-13.2,22.5-20.8,48.4-21.2,76.2h87C228.3,407.4,231.6,396.7,237,387.2z"/>
	<path fill="#63BF76" d="M219.5,557.5c22.5,12.9,48.4,20.5,76.2,20.8v-86.8c-11.9-0.3-22.9-3.5-32.6-9.1L219.5,557.5z"/>
	<path fill="#F1B43D" d="M237.8,385.7c5.8-9.8,14-18,23.8-23.8L219,286.2c-22.9,13.3-42.2,32.4-55.8,55.2L237.8,385.7z"/>
	<path fill="#63BF76" d="M236.5,455.4c-5.4-9.6-8.5-20.7-8.6-32.6h-87c0.1,28.2,7.8,54.5,21,77.3L236.5,455.4z"/>
</g>
<circle fill="#3D8C53" cx="297.9" cy="421.6" r="65.6"/>
<text transform="matrix(1 0 0 1 339.833 195.7496)" fill="#FFFFFF" font-family="'Raleway-Bold'" font-size="19.8285">Комфорт</text>
<text transform="matrix(1 0 0 1 159.9823 195.7496)" fill="#FFFFFF" font-family="'Raleway-Bold'" font-size="19.8285">Экология</text>
<text transform="matrix(1 0 0 1 121.0337 642.5987)" fill="#FFFFFF" font-family="'Raleway-Bold'" font-size="19.8285">Инфраструктура</text>
<text transform="matrix(1 0 0 1 337.5956 642.5987)" fill="#FFFFFF" font-family="'Raleway-Bold'" font-size="19.8285">Транспорт</text>
<text transform="matrix(1 0 0 1 248.9394 405.4435)" fill="#FFFFFF" font-family="'Raleway-Bold'" font-size="12.7877">Общий рейтинг</text>
<text transform="matrix(1 0 0 1 257.7176 445.1907)" fill="#FFFFFF" font-family="'Raleway-Bold'" font-size="40.2247">88%</text>
<g>
	<text transform="matrix(1 0 0 1 205.3809 254.5269)" fill="#63BF76" font-family="'Raleway-Light'" font-size="14.1632">Район</text>
</g>
<g>
	<text transform="matrix(1 0 0 1 74.3712 373.7981)" fill="#63BF76" font-family="'Raleway-Light'" font-size="14.1632">Участок</text>
</g>
<g>
	<text transform="matrix(1 0 0 1 67.856 465.1517)" fill="#63BF76" font-family="'Raleway-Light'" font-size="14.1632">Торговля</text>
</g>
<g>
	<text transform="matrix(1 0 0 1 470.2332 465.1517)" fill="#63BF76" font-family="'Raleway-Light'" font-size="14.1632">Автомобиль</text>
</g>
<g>
	<text transform="matrix(1 0 0 1 475.8983 407.5724)" fill="#F1B43D" font-family="'Raleway-Light'" font-size="14.1632">Статус</text>
</g>
<g>
	<text transform="matrix(1 0 0 1 470.2332 387.4782)" fill="#63BF76" font-family="'Raleway-Light'" font-size="14.1632">Технология</text>
</g>
<g>
	<text transform="matrix(1 0 0 1 464.5682 368.2057)" fill="#F1B43D" font-family="'Raleway-Light'" font-size="14.1632">Парковка</text>
</g>
<g>
	<text transform="matrix(1 0 0 1 457.203 348.751)" fill="#63BF76" font-family="'Raleway-Light'" font-size="14.1632">Безопасность</text>
</g>
<g>
	<text transform="matrix(1 0 0 1 443.039 328.2936)" fill="#63BF76" font-family="'Raleway-Light'" font-size="14.1632">Двор</text>
</g>
<g>
	<text transform="matrix(1 0 0 1 428.451 310.8731)" fill="#63BF76" font-family="'Raleway-Light'" font-size="14.1632">Инженерия</text>
</g>
<g>
	<text transform="matrix(1 0 0 1 410.4824 293.8084)" fill="#E12742" font-family="'Raleway-Light'" font-size="14.1632">Потолки</text>
</g>
<g>
	<text transform="matrix(1 0 0 1 385.4618 275.7386)" fill="#F1B43D" font-family="'Raleway-Light'" font-size="14.1632">Планировки</text>
</g>
<g>
	<text transform="matrix(1 0 0 1 354.3583 259.1673)" fill="#63BF76" font-family="'Raleway-Light'" font-size="14.1632">Плотность на этаже</text>
</g>
<g>
	<text transform="matrix(1 0 0 1 317.6092 241.8884)" fill="#F1B43D" font-family="'Raleway-Light'" font-size="14.1632">Плотность заселения</text>
</g>
<g>
	<text transform="matrix(1 0 0 1 170.6807 598.2855)" fill="#63BF76" font-family="'Raleway-Light'" font-size="14.1632">Развлечения</text>
</g>
<g>
	<text transform="matrix(1 0 0 1 333.7361 598.2855)" fill="#F1B43D" font-family="'Raleway-Light'" font-size="14.1632">Метро</text>
</g>
<g>
	<text transform="matrix(1 0 0 1 103.1223 550.1301)" fill="#F1B43D" font-family="'Raleway-Light'" font-size="14.1632">Медицина</text>
</g>
<g>
	<text transform="matrix(1 0 0 1 414.9959 550.1301)" fill="#63BF76" font-family="'Raleway-Light'" font-size="14.1632">Наземный транспорт</text>
</g>
<g>
	<text transform="matrix(1 0 0 1 115.4442 295.6107)" fill="#F1B43D" font-family="'Raleway-Light'" font-size="14.1632">Локация</text>
</g>
<g>
	<path id="SVGID_x5F_1_x5F_" fill="none" d="M600,421.2c0,167-135.4,302.4-302.4,302.4S-4.7,588.2-4.7,421.2
		s135.4-302.4,302.4-302.4S600,254.2,600,421.2z"/>
	<text>	<textPath  xlink:href="#SVGID_x5F_1_x5F_" startOffset="80.3223%">
<tspan  fill="#FFFFFF" font-family="'Raleway-Bold'" font-size="19.8285">Экология</tspan>	</textPath>
</text>
</g>
</svg>
