<?xml version="1.0" encoding="utf-8"?>
<!-- Generator: Adobe Illustrator 18.1.1, SVG Export Plug-In . SVG Version: 6.00 Build 0)  -->
<svg version="1.1" id="Layer_1" xmlns="http://www.w3.org/2000/svg" xmlns:xlink="http://www.w3.org/1999/xlink" x="0px" y="0px"
	 viewBox="0 0 47 38.1" enable-background="new 0 0 47 38.1" xml:space="preserve">
<path fill-rule="evenodd" clip-rule="evenodd" fill="#FFFFFF" d="M31.9,0c3.7-0.1,5.7,1.3,7.6,3c1.6-0.1,3.7-1,4.9-1.7
	c0.4-0.2,0.8-0.4,1.2-0.7c-0.7,1.9-1.9,3.4-3.3,4.5C42,5.5,42,5.8,41,6v0c3,0,4-1,6-1.5v0c-1,1.4-2.1,2.8-3.3,3.7
	c-0.5,0.4-1,0.8-1.5,1.2c0,2.2,0,4.3-0.5,6.2c-2.4,10.8-8.8,18.1-18.9,21.3c-3.6,1.1-9.5,1.6-13.6,0.6c-2.1-0.5-3.9-1.1-5.7-1.8
	c-1-0.4-1.9-0.9-2.7-1.4c-0.3-0.2-0.6-0.3-0.8-0.5c0.9,0,2,0.3,3.1,0.1c0.9-0.2,1.9-0.1,2.7-0.3c2.2-0.5,4.1-1.1,5.8-2.1
	c0.8-0.5,2-1,2.6-1.7c-1.1,0-2.1-0.2-2.9-0.5c-3.1-1.1-4.9-3.1-6.1-6.2c0.9,0.1,3.7,0.3,4.3-0.2c-1.2-0.1-2.3-0.8-3.1-1.3
	c-2.5-1.6-4.5-4.2-4.5-8.2c0.3,0.2,0.7,0.3,1,0.5c0.6,0.3,1.3,0.5,2,0.6c0.3,0.1,1,0.2,1.3,0.2h0c-0.5-1-1.3-1-1.8-1.6
	c-1.6-2-3.1-5.1-2.2-8.8c0.2-0.9,0.6-1.8,1-2.5c0,0,0,0,0,0c0.2,0.4,0.6,0.7,0.9,1C5,3.8,6,4.7,7,5.5c3.5,2.7,6.7,4.4,11.8,5.7
	c1.3,0.3,2.8,0.6,4.3,0.6c-0.4-1.3-0.3-3.3,0-4.5C24,4.2,25.9,2,28.6,0.8c0.7-0.3,1.4-0.5,2.1-0.7C31.1,0.1,31.5,0,31.9,0"/>
<rect y="0" fill="none" width="47" height="38.1"/>
</svg>
