<?xml version="1.0" encoding="utf-8"?>
<!-- Generator: Adobe Illustrator 18.1.1, SVG Export Plug-In . SVG Version: 6.00 Build 0)  -->
<svg version="1.1" id="Layer_1" xmlns="http://www.w3.org/2000/svg" xmlns:xlink="http://www.w3.org/1999/xlink" x="0px" y="0px"
	 viewBox="0 0 43.1 25.1" enable-background="new 0 0 43.1 25.1" xml:space="preserve">
<path fill-rule="evenodd" clip-rule="evenodd" fill="#FFFFFF" d="M20.7,24h2.5c0,0,0.8-0.1,1.2-0.5c0.4-0.4,0.3-1.1,0.3-1.1
	s0-3.4,1.5-3.9c1.6-0.5,3.5,3.3,5.7,4.7c1.6,1.1,2.8,0.9,2.8,0.9l5.7-0.1c0,0,3-0.2,1.6-2.5c-0.1-0.2-0.8-1.7-4.2-4.9
	c-3.5-3.3-3.1-2.8,1.2-8.4c2.6-3.5,3.6-5.6,3.3-6.5C41.9,0.9,40,1.1,40,1.1l-6.4,0c0,0-0.5-0.1-0.8,0.1C32.5,1.5,32.3,2,32.3,2
	s-1,2.7-2.3,5c-2.8,4.8-4,5.1-4.4,4.8c-1.1-0.7-0.8-2.8-0.8-4.3c0-4.7,0.7-6.6-1.4-7.1c-0.7-0.2-1.2-0.3-3-0.3c-2.3,0-4.2,0-5.3,0.5
	c-0.7,0.4-1.3,1.1-0.9,1.2C14.5,1.8,15.5,2,16,2.7c0.7,0.9,0.6,2.9,0.6,2.9s0.4,5.5-0.9,6.2c-0.9,0.5-2-0.5-4.6-4.9
	C9.9,4.6,8.9,2.2,8.9,2.2S8.7,1.7,8.4,1.5c-0.4-0.3-1-0.4-1-0.4l-6,0c0,0-0.9,0-1.2,0.4c-0.3,0.4,0,1.1,0,1.1s4.7,11.1,10.1,16.7
	C15.1,24.4,20.7,24,20.7,24"/>
</svg>
